<svg width="52" height="52" viewBox="0 0 52 52" fill="none" xmlns="http://www.w3.org/2000/svg">
<path d="M42.2539 16.5H9.25391V41.5H42.2539V16.5Z" fill="#F8F8F8" stroke="#363636"/>
<path fill-rule="evenodd" clip-rule="evenodd" d="M12.7539 41V26.9242C12.7539 26.4138 13.1631 26 13.668 26H20.8398C21.3447 26 21.7539 26.4138 21.7539 26.9242V41" fill="white"/>
<path d="M12.7539 41V26.9242C12.7539 26.4138 13.1631 26 13.668 26H20.8398C21.3447 26 21.7539 26.4138 21.7539 26.9242V41" stroke="#363636"/>
<path d="M20.4289 32H18.0789C17.8994 32 17.7539 32.1455 17.7539 32.325V32.675C17.7539 32.8545 17.8994 33 18.0789 33H20.4289C20.6084 33 20.7539 32.8545 20.7539 32.675V32.325C20.7539 32.1455 20.6084 32 20.4289 32Z" fill="#363636"/>
<path d="M44.2014 41.1033H7.30664C7.0305 41.1033 6.80664 41.3271 6.80664 41.6033V43.6033C6.80664 43.8794 7.0305 44.1033 7.30664 44.1033H44.2014C44.4775 44.1033 44.7014 43.8794 44.7014 43.6033V41.6033C44.7014 41.3271 44.4775 41.1033 44.2014 41.1033Z" fill="white" stroke="#363636"/>
<path d="M37.7539 26H26.7539C26.2016 26 25.7539 26.4477 25.7539 27V35C25.7539 35.5523 26.2016 36 26.7539 36H37.7539C38.3062 36 38.7539 35.5523 38.7539 35V27C38.7539 26.4477 38.3062 26 37.7539 26Z" fill="white" stroke="#363636"/>
<path fill-rule="evenodd" clip-rule="evenodd" d="M13.7539 8H21.7539V16.578C21.7539 18.7872 19.963 20.578 17.7539 20.578C15.5448 20.578 13.7539 18.7872 13.7539 16.578V8Z" fill="url(#paint0_linear_7594_1074)" stroke="#363636"/>
<path fill-rule="evenodd" clip-rule="evenodd" d="M21.7539 8H29.7539V16.578C29.7539 18.7872 27.963 20.578 25.7539 20.578C23.5448 20.578 21.7539 18.7872 21.7539 16.578V8Z" fill="white" stroke="#363636"/>
<path fill-rule="evenodd" clip-rule="evenodd" d="M29.7539 8H37.7539V16.578C37.7539 18.7872 35.963 20.578 33.7539 20.578C31.5448 20.578 29.7539 18.7872 29.7539 16.578V8Z" fill="url(#paint1_linear_7594_1074)" stroke="#363636"/>
<path fill-rule="evenodd" clip-rule="evenodd" d="M37.7539 8H44.9539L45.5 16.5861C45.6316 18.655 44.0611 20.4389 41.9922 20.5705C41.9128 20.5755 41.8334 20.578 41.7539 20.578C39.5448 20.578 37.7539 18.7872 37.7539 16.578V8Z" fill="white" stroke="#363636"/>
<path fill-rule="evenodd" clip-rule="evenodd" d="M6.55367 8H13.7537V16.578C13.7537 18.7872 11.9628 20.578 9.75367 20.578C7.68058 20.578 6 18.8975 6 16.8244C6 16.7449 6.00252 16.6654 6.00757 16.5861L6.55367 8Z" fill="white" stroke="#363636"/>
<path fill-rule="evenodd" clip-rule="evenodd" d="M27.043 25.7708H33.9377C30.9815 27.5177 29.5034 29.2646 29.5034 31.0116C29.5034 32.7585 30.9815 34.5055 33.9377 36.2524H27.043C26.4907 36.2524 26.043 35.8047 26.043 35.2524V26.7708C26.043 26.2185 26.4907 25.7708 27.043 25.7708Z" fill="#363636" fill-opacity="0.1"/>
<defs>
<linearGradient id="paint0_linear_7594_1074" x1="16.1358" y1="20.578" x2="22.7637" y2="10.1572" gradientUnits="userSpaceOnUse">
<stop stop-color="#FF7100"/>
<stop offset="1" stop-color="#F6DA35"/>
</linearGradient>
<linearGradient id="paint1_linear_7594_1074" x1="32.1358" y1="20.578" x2="38.7637" y2="10.1572" gradientUnits="userSpaceOnUse">
<stop stop-color="#FF7100"/>
<stop offset="1" stop-color="#F6DA35"/>
</linearGradient>
</defs>
</svg>
